<?xml version="1.0" ?><svg data-name="Layer 1" id="Layer_1" viewBox="0 0 32 32" xmlns="http://www.w3.org/2000/svg"><path d="M12.78608,12.56346a12.22686,12.22686,0,0,0,6.15047,6.15047,12.22681,12.22681,0,0,0-6.15047,6.15046,12.22681,12.22681,0,0,0-6.15047-6.15046,12.22686,12.22686,0,0,0,6.15047-6.15047m0-5.77145A11.50222,11.50222,0,0,1,.86416,18.71393,11.50222,11.50222,0,0,1,12.78608,30.63585,11.5022,11.5022,0,0,1,24.708,18.71393,11.5022,11.5022,0,0,1,12.78608,6.792Z"/><path d="M24.89378,5.58684a6.891,6.891,0,0,0,2.01938,2.01938,6.89083,6.89083,0,0,0-2.01938,2.01937A6.891,6.891,0,0,0,22.8744,7.60622a6.8911,6.8911,0,0,0,2.01938-2.01938m0-4.22269a6.02232,6.02232,0,0,1-6.24207,6.24207,6.02231,6.02231,0,0,1,6.24207,6.24206,6.02231,6.02231,0,0,1,6.24206-6.24206,6.02232,6.02232,0,0,1-6.24206-6.24207Z"/></svg>